<mxfile host="app.diagrams.net" modified="2024-01-05T09:39:27.342Z" agent="Mozilla/5.0 (Windows NT 10.0; Win64; x64) AppleWebKit/537.36 (KHTML, like Gecko) Chrome/120.0.0.0 Safari/537.36" etag="0nj0-YyQ_Zlmc31RLWeq" version="21.4.0" type="device">
  <diagram name="Page-1" id="aJIlNN1ILYYP9TfCxOx6">
    <mxGraphModel dx="2017" dy="1719" grid="1" gridSize="10" guides="1" tooltips="1" connect="1" arrows="1" fold="1" page="1" pageScale="1" pageWidth="850" pageHeight="1100" math="0" shadow="0">
      <root>
        <mxCell id="0" />
        <mxCell id="1" parent="0" />
        <mxCell id="e5asQajztaEwYwTBpXRR-20" style="edgeStyle=orthogonalEdgeStyle;rounded=0;orthogonalLoop=1;jettySize=auto;html=1;entryX=1;entryY=0.5;entryDx=0;entryDy=0;" edge="1" parent="1" target="e5asQajztaEwYwTBpXRR-11">
          <mxGeometry relative="1" as="geometry">
            <mxPoint x="480" y="174.99999999999977" as="sourcePoint" />
            <mxPoint x="280" y="215" as="targetPoint" />
            <Array as="points">
              <mxPoint x="360" y="175" />
              <mxPoint x="360" y="245" />
            </Array>
          </mxGeometry>
        </mxCell>
        <mxCell id="e5asQajztaEwYwTBpXRR-21" value="" style="edgeStyle=orthogonalEdgeStyle;rounded=0;orthogonalLoop=1;jettySize=auto;html=1;startArrow=classic;startFill=1;" edge="1" parent="1" source="e5asQajztaEwYwTBpXRR-1" target="e5asQajztaEwYwTBpXRR-7">
          <mxGeometry relative="1" as="geometry" />
        </mxCell>
        <mxCell id="e5asQajztaEwYwTBpXRR-1" value="&lt;p style=&quot;margin:0px;margin-top:6px;text-align:center;&quot;&gt;&lt;b&gt;Destination&lt;/b&gt;&lt;/p&gt;&lt;hr&gt;&lt;p style=&quot;margin:0px;margin-left:8px;&quot;&gt;+&amp;nbsp;Represents a destination with a name and a list of activities.&lt;/p&gt;&lt;p style=&quot;margin:0px;margin-left:8px;&quot;&gt;&lt;br&gt;&lt;/p&gt;&lt;p style=&quot;margin:0px;margin-left:8px;&quot;&gt;+ Add list of activites to destination&lt;/p&gt;" style="align=left;overflow=fill;html=1;dropTarget=0;whiteSpace=wrap;" vertex="1" parent="1">
          <mxGeometry x="480" y="120" width="220" height="100" as="geometry" />
        </mxCell>
        <mxCell id="e5asQajztaEwYwTBpXRR-2" value="" style="shape=component;jettyWidth=8;jettyHeight=4;" vertex="1" parent="e5asQajztaEwYwTBpXRR-1">
          <mxGeometry x="1" width="20" height="20" relative="1" as="geometry">
            <mxPoint x="-24" y="4" as="offset" />
          </mxGeometry>
        </mxCell>
        <mxCell id="e5asQajztaEwYwTBpXRR-17" value="" style="edgeStyle=orthogonalEdgeStyle;rounded=0;orthogonalLoop=1;jettySize=auto;html=1;" edge="1" parent="1" source="e5asQajztaEwYwTBpXRR-3" target="e5asQajztaEwYwTBpXRR-5">
          <mxGeometry relative="1" as="geometry" />
        </mxCell>
        <mxCell id="e5asQajztaEwYwTBpXRR-3" value="&lt;p style=&quot;margin:0px;margin-top:6px;text-align:center;&quot;&gt;&lt;b&gt;Subscription&lt;/b&gt;&lt;/p&gt;&lt;hr&gt;&lt;p style=&quot;margin:0px;margin-left:8px;&quot;&gt;+ Gold, Standard, Premium&lt;br&gt;&lt;/p&gt;" style="align=left;overflow=fill;html=1;dropTarget=0;whiteSpace=wrap;" vertex="1" parent="1">
          <mxGeometry x="-100" y="-31" width="180" height="60" as="geometry" />
        </mxCell>
        <mxCell id="e5asQajztaEwYwTBpXRR-4" value="" style="shape=component;jettyWidth=8;jettyHeight=4;" vertex="1" parent="e5asQajztaEwYwTBpXRR-3">
          <mxGeometry x="1" width="20" height="20" relative="1" as="geometry">
            <mxPoint x="-24" y="4" as="offset" />
          </mxGeometry>
        </mxCell>
        <mxCell id="e5asQajztaEwYwTBpXRR-16" style="edgeStyle=orthogonalEdgeStyle;rounded=0;orthogonalLoop=1;jettySize=auto;html=1;entryX=0;entryY=0.5;entryDx=0;entryDy=0;" edge="1" parent="1" source="e5asQajztaEwYwTBpXRR-5" target="e5asQajztaEwYwTBpXRR-7">
          <mxGeometry relative="1" as="geometry" />
        </mxCell>
        <mxCell id="e5asQajztaEwYwTBpXRR-23" style="edgeStyle=orthogonalEdgeStyle;rounded=0;orthogonalLoop=1;jettySize=auto;html=1;entryX=0.5;entryY=0;entryDx=0;entryDy=0;" edge="1" parent="1" source="e5asQajztaEwYwTBpXRR-5" target="e5asQajztaEwYwTBpXRR-11">
          <mxGeometry relative="1" as="geometry" />
        </mxCell>
        <mxCell id="e5asQajztaEwYwTBpXRR-5" value="&lt;p style=&quot;margin:0px;margin-top:6px;text-align:center;&quot;&gt;&lt;b&gt;Passenger&lt;/b&gt;&lt;/p&gt;&lt;hr&gt;&lt;p style=&quot;margin:0px;margin-left:8px;&quot;&gt;+ Passenger name, number, balance and list of signed activities.&lt;br&gt;&lt;/p&gt;&lt;p style=&quot;margin:0px;margin-left:8px;&quot;&gt;&lt;br&gt;&lt;/p&gt;&lt;p style=&quot;margin:0px;margin-left:8px;&quot;&gt;+ Also has a subscription type of&amp;nbsp; plan.&lt;/p&gt;" style="align=left;overflow=fill;html=1;dropTarget=0;whiteSpace=wrap;" vertex="1" parent="1">
          <mxGeometry x="150" y="-56" width="220" height="110" as="geometry" />
        </mxCell>
        <mxCell id="e5asQajztaEwYwTBpXRR-6" value="" style="shape=component;jettyWidth=8;jettyHeight=4;" vertex="1" parent="e5asQajztaEwYwTBpXRR-5">
          <mxGeometry x="1" width="20" height="20" relative="1" as="geometry">
            <mxPoint x="-24" y="4" as="offset" />
          </mxGeometry>
        </mxCell>
        <mxCell id="e5asQajztaEwYwTBpXRR-15" value="" style="edgeStyle=orthogonalEdgeStyle;rounded=0;orthogonalLoop=1;jettySize=auto;html=1;entryX=1;entryY=0.5;entryDx=0;entryDy=0;startArrow=none;startFill=0;" edge="1" parent="1" source="e5asQajztaEwYwTBpXRR-7" target="e5asQajztaEwYwTBpXRR-11">
          <mxGeometry relative="1" as="geometry">
            <Array as="points">
              <mxPoint x="590" y="100" />
              <mxPoint x="360" y="100" />
              <mxPoint x="360" y="245" />
            </Array>
          </mxGeometry>
        </mxCell>
        <mxCell id="e5asQajztaEwYwTBpXRR-7" value="&lt;p style=&quot;margin:0px;margin-top:6px;text-align:center;&quot;&gt;&lt;b&gt;Activity&lt;/b&gt;&lt;/p&gt;&lt;hr&gt;&lt;p style=&quot;margin:0px;margin-left:8px;&quot;&gt;+ Activity name, cost, description, capacity and specific link to destination.&lt;/p&gt;" style="align=left;overflow=fill;html=1;dropTarget=0;whiteSpace=wrap;" vertex="1" parent="1">
          <mxGeometry x="475" y="-40" width="230" height="80" as="geometry" />
        </mxCell>
        <mxCell id="e5asQajztaEwYwTBpXRR-8" value="" style="shape=component;jettyWidth=8;jettyHeight=4;" vertex="1" parent="e5asQajztaEwYwTBpXRR-7">
          <mxGeometry x="1" width="20" height="20" relative="1" as="geometry">
            <mxPoint x="-24" y="4" as="offset" />
          </mxGeometry>
        </mxCell>
        <mxCell id="e5asQajztaEwYwTBpXRR-14" style="edgeStyle=orthogonalEdgeStyle;rounded=0;orthogonalLoop=1;jettySize=auto;html=1;entryX=0.5;entryY=1;entryDx=0;entryDy=0;exitX=0.428;exitY=-0.01;exitDx=0;exitDy=0;exitPerimeter=0;" edge="1" parent="1" source="e5asQajztaEwYwTBpXRR-9" target="e5asQajztaEwYwTBpXRR-1">
          <mxGeometry relative="1" as="geometry">
            <Array as="points">
              <mxPoint x="590" y="349" />
            </Array>
          </mxGeometry>
        </mxCell>
        <mxCell id="e5asQajztaEwYwTBpXRR-18" style="edgeStyle=orthogonalEdgeStyle;rounded=0;orthogonalLoop=1;jettySize=auto;html=1;entryX=1;entryY=0.5;entryDx=0;entryDy=0;" edge="1" parent="1" source="e5asQajztaEwYwTBpXRR-9" target="e5asQajztaEwYwTBpXRR-11">
          <mxGeometry relative="1" as="geometry" />
        </mxCell>
        <mxCell id="e5asQajztaEwYwTBpXRR-9" value="&lt;p style=&quot;margin:0px;margin-top:6px;text-align:center;&quot;&gt;&lt;b&gt;TravelPack&lt;/b&gt;&lt;/p&gt;&lt;hr&gt;&lt;p style=&quot;margin:0px;margin-left:8px;&quot;&gt;+ Manages destinations and passengers&lt;br&gt;&lt;/p&gt;&lt;p style=&quot;margin:0px;margin-left:8px;&quot;&gt;&lt;br&gt;&lt;/p&gt;&lt;p style=&quot;margin:0px;margin-left:8px;&quot;&gt;+ Add destinations, add passengers, print Itinerary, passengerList and available activities.&lt;/p&gt;" style="align=left;overflow=fill;html=1;dropTarget=0;whiteSpace=wrap;" vertex="1" parent="1">
          <mxGeometry x="460" y="290" width="275" height="100" as="geometry" />
        </mxCell>
        <mxCell id="e5asQajztaEwYwTBpXRR-10" value="" style="shape=component;jettyWidth=8;jettyHeight=4;" vertex="1" parent="e5asQajztaEwYwTBpXRR-9">
          <mxGeometry x="1" width="20" height="20" relative="1" as="geometry">
            <mxPoint x="-24" y="4" as="offset" />
          </mxGeometry>
        </mxCell>
        <mxCell id="e5asQajztaEwYwTBpXRR-11" value="&lt;p style=&quot;margin:0px;margin-top:6px;text-align:center;&quot;&gt;&lt;b&gt;Main&lt;/b&gt;&lt;/p&gt;&lt;hr&gt;&lt;p style=&quot;margin:0px;margin-left:8px;&quot;&gt;+ Instantiation of TravelPack, Activity, Destination, Passenger.&lt;br&gt;&lt;/p&gt;&lt;p style=&quot;margin:0px;margin-left:8px;&quot;&gt;&lt;br&gt;&lt;/p&gt;&lt;p style=&quot;margin:0px;margin-left:8px;&quot;&gt;+ Print itinerary, passenger list, passenger details and available activities.&lt;/p&gt;&lt;p style=&quot;margin:0px;margin-left:8px;&quot;&gt;&lt;br&gt;&lt;/p&gt;&lt;p style=&quot;margin:0px;margin-left:8px;&quot;&gt;+ Simulates passenger signup for activities and updates details after that.&lt;/p&gt;" style="align=left;overflow=fill;html=1;dropTarget=0;whiteSpace=wrap;" vertex="1" parent="1">
          <mxGeometry x="20" y="160" width="240" height="170" as="geometry" />
        </mxCell>
        <mxCell id="e5asQajztaEwYwTBpXRR-12" value="" style="shape=component;jettyWidth=8;jettyHeight=4;" vertex="1" parent="e5asQajztaEwYwTBpXRR-11">
          <mxGeometry x="1" width="20" height="20" relative="1" as="geometry">
            <mxPoint x="-24" y="4" as="offset" />
          </mxGeometry>
        </mxCell>
      </root>
    </mxGraphModel>
  </diagram>
</mxfile>
